<?xml version="1.0" encoding="UTF-8" standalone="no" ?>
<!DOCTYPE svg PUBLIC "-//W3C//DTD SVG 1.1//EN" "http://www.w3.org/Graphics/SVG/1.1/DTD/svg11.dtd">
<svg xmlns="http://www.w3.org/2000/svg" xmlns:xlink="http://www.w3.org/1999/xlink" version="1.1" width="1280" height="1024" viewBox="0 0 1280 1024" xml:space="preserve">
<desc>Created with Fabric.js 5.3.0</desc>
<defs>
</defs>
<g transform="matrix(1 0 0 1 640 512)" id="background-logo"  >
<rect style="stroke: none; stroke-width: 0; stroke-dasharray: none; stroke-linecap: butt; stroke-dashoffset: 0; stroke-linejoin: miter; stroke-miterlimit: 4; fill: rgb(255,255,255); fill-opacity: 0; fill-rule: nonzero; opacity: 1;"  paint-order="stroke"  x="-640" y="-512" rx="0" ry="0" width="1280" height="1024" />
</g>
<g transform="matrix(1.9211538461538453 0 0 1.9211538461538453 512.9258286639877 518.581189966816)" id="tagline-4a4be01e-420b-497d-b40f-ba7c157ce5eb-logo"  >
<g style=""  paint-order="stroke"   >
		<g transform="matrix(1 0 0 1 0 0)" id="tagline-4a4be01e-420b-497d-b40f-ba7c157ce5eb-logo-path-0"  >
<path style="stroke: none; stroke-width: 0; stroke-dasharray: none; stroke-linecap: butt; stroke-dashoffset: 0; stroke-linejoin: miter; stroke-miterlimit: 4; fill: rgb(92,224,230); fill-rule: nonzero; opacity: 1;"  paint-order="stroke"  transform=" translate(-174.52999999999997, 21.68)" d="M 31.45 1.37 L 1.6 -60 L 4.49 -60 L 31.68 -4.41 L 58.71 -60 L 61.29 -60 L 31.45 1.37 Z M 60.47 -4.82 Q 54.96 -10.55 54.96 -18.14 Q 54.96 -25.74 60.55 -31.31 Q 66.13 -36.88 74.02 -36.88 Q 81.91 -36.88 87.48 -31.31 Q 93.05 -25.74 93.05 -18.11 Q 93.05 -10.47 87.6 -4.79 Q 82.15 0.9 74.38 0.9 L 74.38 0.9 L 73.67 0.9 Q 65.98 0.9 60.47 -4.82 Z M 62.42 -29.65 Q 57.5 -24.65 57.5 -17.93 Q 57.5 -11.21 62.42 -6.29 Q 67.34 -1.37 74.1 -1.37 Q 80.86 -1.37 85.66 -6.29 Q 90.47 -11.21 90.47 -17.97 Q 90.47 -24.73 85.63 -29.69 Q 80.78 -34.65 74.06 -34.65 Q 67.34 -34.65 62.42 -29.65 Z M 103.16 0 L 100.63 0 L 100.63 -36.02 L 103.16 -36.02 L 103.16 -30.63 Q 104.61 -33.36 107.66 -35.12 Q 110.7 -36.88 114.45 -36.88 Q 118.2 -36.88 121.68 -34.34 L 121.68 -34.34 L 121.68 -31.13 Q 118.13 -34.65 113.89 -34.65 Q 109.65 -34.65 106.41 -31.45 Q 103.16 -28.24 103.16 -23.98 L 103.16 -23.98 L 103.16 0 Z M 126.21 -4.26 L 126.21 -4.26 L 126.21 -8.09 Q 129.26 -1.37 135.94 -1.37 L 135.94 -1.37 Q 140.08 -1.37 142.93 -3.93 Q 145.78 -6.48 145.78 -9.65 Q 145.78 -12.81 143.98 -14.96 Q 142.19 -17.11 139.63 -18.63 Q 137.07 -20.16 134.55 -21.64 Q 132.03 -23.13 130.23 -25.23 Q 128.44 -27.34 128.44 -30.2 Q 128.44 -33.05 130.72 -35 Q 133.01 -36.95 136.6 -36.95 Q 140.2 -36.95 142.73 -34.14 L 142.73 -34.14 L 142.73 -30.9 Q 140.2 -34.73 136.29 -34.73 L 136.29 -34.73 Q 134.22 -34.73 132.6 -33.36 Q 130.98 -31.99 130.98 -30 Q 130.98 -28.01 132.79 -26.33 Q 134.61 -24.65 137.13 -23.24 Q 139.65 -21.84 142.21 -20.23 Q 144.77 -18.63 146.56 -16.15 Q 148.36 -13.67 148.36 -10.47 L 148.36 -10.47 Q 148.36 -5.74 144.8 -2.42 Q 141.25 0.9 136.21 0.9 L 136.21 0.9 Q 133.01 0.9 130.23 -0.51 Q 127.46 -1.91 126.21 -4.26 Z M 158.48 16.02 L 155.94 16.02 L 155.94 -36.02 L 158.48 -36.02 L 158.48 -27.19 Q 160.63 -31.6 165.23 -34.24 Q 169.84 -36.88 174.8 -36.88 L 174.8 -36.88 Q 182.73 -36.88 188.3 -31.31 Q 193.87 -25.74 193.87 -17.99 Q 193.87 -10.23 188.3 -4.67 Q 182.73 0.9 174.8 0.9 L 174.8 0.9 Q 170 0.9 165.45 -1.72 Q 160.9 -4.34 158.48 -8.71 L 158.48 -8.71 L 158.48 16.02 Z M 163.24 -29.65 Q 158.32 -24.65 158.32 -17.93 Q 158.32 -11.21 163.24 -6.29 Q 168.16 -1.37 174.92 -1.37 Q 181.68 -1.37 186.48 -6.29 Q 191.29 -11.21 191.29 -17.97 Q 191.29 -24.73 186.45 -29.69 Q 181.6 -34.65 174.88 -34.65 Q 168.16 -34.65 163.24 -29.65 Z M 203.98 0 L 201.45 0 L 201.45 -36.02 L 203.98 -36.02 L 203.98 -30.63 Q 205.43 -33.36 208.48 -35.12 Q 211.52 -36.88 215.27 -36.88 Q 219.02 -36.88 222.5 -34.34 L 222.5 -34.34 L 222.5 -31.13 Q 218.95 -34.65 214.71 -34.65 Q 210.47 -34.65 207.23 -31.45 Q 203.98 -28.24 203.98 -23.98 L 203.98 -23.98 L 203.98 0 Z M 228.44 -15.04 L 228.44 -15.04 L 228.44 -36.02 L 231.02 -36.02 L 231.02 -15.04 Q 231.02 -9.53 234.9 -5.45 Q 238.79 -1.37 244.3 -1.37 Q 249.8 -1.37 254 -5.45 Q 258.2 -9.53 258.2 -15.04 L 258.2 -15.04 L 258.2 -36.02 L 260.78 -36.02 L 260.78 0 L 258.2 0 L 258.2 -7.27 Q 254.14 0.9 244.3 0.9 L 244.3 0.9 Q 237.58 0.9 233.01 -3.75 Q 228.44 -8.4 228.44 -15.04 Z M 272.11 0 L 269.57 0 L 269.57 -36.02 L 272.11 -36.02 L 272.11 -28.71 Q 276.17 -36.88 286.05 -36.88 L 286.05 -36.88 Q 292.77 -36.88 297.32 -32.25 Q 301.88 -27.62 301.88 -20.98 L 301.88 -20.98 L 301.88 0 L 299.34 0 L 299.34 -20.98 Q 299.34 -26.48 295.45 -30.57 Q 291.56 -34.65 286.04 -34.65 Q 280.51 -34.65 276.31 -30.57 Q 272.11 -26.48 272.11 -20.98 L 272.11 -20.98 L 272.11 0 Z M 315.08 -4.59 Q 309.49 -10.16 309.49 -17.91 Q 309.49 -25.66 315.08 -31.23 Q 320.66 -36.8 328.52 -36.8 L 328.52 -36.8 Q 333.71 -36.8 338.24 -34.2 Q 342.77 -31.6 344.92 -27.03 L 344.92 -27.03 L 344.92 -36.02 L 347.46 -36.02 L 347.46 -3.36 Q 347.46 5.94 342.34 11.29 Q 337.23 16.64 328.91 16.64 L 328.91 16.64 Q 324.34 16.64 320.02 14.55 Q 315.7 12.46 313.32 9.1 L 313.32 9.1 L 313.32 5.43 Q 315.39 9.26 319.84 11.84 Q 324.3 14.41 328.91 14.41 L 328.91 14.41 Q 335.94 14.41 340.43 9.65 Q 344.92 4.88 344.92 -3.36 L 344.92 -3.36 L 344.92 -8.71 Q 342.77 -4.3 338.13 -1.66 Q 333.48 0.98 328.52 0.98 L 328.52 0.98 Q 320.66 0.98 315.08 -4.59 Z M 316.95 -29.65 Q 312.03 -24.73 312.03 -17.93 Q 312.03 -11.13 316.95 -6.21 Q 321.88 -1.29 328.63 -1.29 Q 335.39 -1.29 340.2 -6.21 Q 345 -11.13 345 -17.93 Q 345 -24.73 340.2 -29.65 Q 335.39 -34.57 328.63 -34.57 Q 321.88 -34.57 316.95 -29.65 Z" stroke-linecap="round" />
</g>
</g>
</g>
<g transform="matrix(1.9211538461538453 0 0 1.9211538461538453 959.1316869498904 503.6096980797968)" id="tagline-909c54a7-6b8d-4668-b597-1fd6c8bf2235-logo"  >
<g style=""  paint-order="stroke"   >
		<g transform="matrix(1 0 0 1 0 0)" id="tagline-909c54a7-6b8d-4668-b597-1fd6c8bf2235-logo-path-0"  >
<path style="stroke: none; stroke-width: 0; stroke-dasharray: none; stroke-linecap: butt; stroke-dashoffset: 0; stroke-linejoin: miter; stroke-miterlimit: 4; fill: rgb(255,255,255); fill-rule: nonzero; opacity: 1;"  paint-order="stroke"  transform=" translate(-71.485, 29.475)" d="M 15.43 -57.7 L 1.6 -57.7 L 1.6 -60 L 31.76 -60 L 31.76 -57.7 L 18.09 -57.7 L 18.09 0 L 15.43 0 L 15.43 -57.7 Z M 35.47 -4.75 Q 29.84 -10.47 29.84 -18.07 Q 29.84 -25.66 35.45 -31.23 Q 41.05 -36.8 49.3 -36.8 Q 57.54 -36.8 63.44 -30.23 L 63.44 -30.23 L 38.32 -5.43 Q 43.52 -1.29 48.32 -1.29 Q 53.13 -1.29 56.91 -3.48 Q 60.7 -5.66 63.2 -9.38 L 63.2 -9.38 L 63.2 -5.27 Q 57.54 0.98 49.45 0.98 L 49.45 0.98 L 48.71 0.98 Q 41.09 0.98 35.47 -4.75 Z M 37.3 -29.65 Q 32.38 -24.73 32.38 -18.32 Q 32.38 -11.91 36.64 -7.11 L 36.64 -7.11 L 59.92 -30.23 Q 54.96 -34.57 48.59 -34.57 Q 42.23 -34.57 37.3 -29.65 Z M 74.53 -4.63 Q 69.02 -10.31 69.02 -17.95 Q 69.02 -25.59 74.61 -31.15 Q 80.2 -36.72 88.36 -36.72 Q 96.52 -36.72 102.3 -30.55 L 102.3 -30.55 L 102.3 -26.48 Q 99.84 -30.16 96.04 -32.32 Q 92.23 -34.49 88.05 -34.49 L 88.05 -34.49 Q 81.41 -34.49 76.48 -29.57 Q 71.56 -24.65 71.56 -17.85 Q 71.56 -11.05 76.48 -6.13 Q 81.41 -1.21 88.05 -1.21 L 88.05 -1.21 Q 92.19 -1.21 96 -3.36 Q 99.8 -5.51 102.3 -9.3 L 102.3 -9.3 L 102.3 -5.12 Q 96.68 1.05 88.44 1.05 L 88.44 1.05 L 87.73 1.05 Q 80.04 1.05 74.53 -4.63 Z M 111.6 0 L 109.06 0 L 109.06 -59.92 L 111.6 -59.92 L 111.6 -29.02 Q 115.59 -36.88 125.47 -36.88 L 125.47 -36.88 Q 132.19 -36.88 136.78 -32.25 Q 141.37 -27.62 141.37 -20.98 L 141.37 -20.98 L 141.37 0 L 138.83 0 L 138.83 -20.98 Q 138.83 -26.56 134.9 -30.61 Q 130.98 -34.65 125.45 -34.65 Q 119.92 -34.65 115.76 -30.57 Q 111.6 -26.48 111.6 -20.98 L 111.6 -20.98 L 111.6 0 Z" stroke-linecap="round" />
</g>
</g>
</g>
</svg>